<svg xmlns="http://www.w3.org/2000/svg" viewBox="0 0 512 512" role="img" aria-label="Journaling Coach icon">
  <rect width="512" height="512" rx="104" fill="#0d6f68"/>
  <path d="M148 94h232c25 0 45 20 45 45v275c0 25-20 45-45 45H148c-34 0-61-27-61-61V155c0-34 27-61 61-61Z" fill="#fffaf1"/>
  <path d="M150 94h44v365h-44c-35 0-63-28-63-63V157c0-35 28-63 63-63Z" fill="#bf4e38"/>
  <path d="M232 178h132M232 232h112M232 286h132M232 340h84" stroke="#344b7a" stroke-width="22" stroke-linecap="round"/>
  <path d="M143 154h32M143 218h32M143 282h32M143 346h32" stroke="#fffaf1" stroke-width="18" stroke-linecap="round"/>
</svg>
